<svg width="24" height="24" viewBox="0 0 24 24" fill="none" xmlns="http://www.w3.org/2000/svg">
    <path d="M19.834 19.1667L4.83398 4.16675" stroke="#5B60AA" stroke-linecap="round" stroke-linejoin="round"/>
    <rect x="3" y="3" width="18" height="18" rx="5" stroke="#5B60AA" stroke-linecap="round" stroke-linejoin="round"/>
    <path d="M10.9639 10.2971C10.2541 10.7257 9.88339 11.5487 10.0327 12.3643C10.1821 13.1799 10.8203 13.8181 11.6359 13.9675C12.4515 14.1168 13.2744 13.7461 13.7031 13.0363" stroke="#5B60AA" stroke-linecap="round" stroke-linejoin="round"/>
    <path d="M8.91983 8.25317C7.87513 8.78423 6.99888 9.5956 6.38919 10.5964C5.87027 11.4602 5.87027 12.5398 6.38919 13.4036C7.58934 15.3458 9.71697 16.52 12 16.5" stroke="#5B60AA" stroke-linecap="round" stroke-linejoin="round"/>
    <path d="M15.9109 15.2441C14.7716 16.0633 13.4032 16.5027 12 16.5" stroke="#5B60AA" stroke-linecap="round" stroke-linejoin="round"/>
    <path d="M17.6985 13.1985C18.1151 12.373 18.0821 11.392 17.6108 10.5964C16.4107 8.65418 14.2831 7.48001 12 7.50001" stroke="#5B60AA" stroke-linecap="round" stroke-linejoin="round"/>
    </svg>
    