<svg width="30" height="30" viewBox="0 0 30 30" fill="none" xmlns="http://www.w3.org/2000/svg">
    <path fill-rule="evenodd" clip-rule="evenodd" d="M15 26.25V26.25C8.78625 26.25 3.75 21.2138 3.75 15V15C3.75 8.78625 8.78625 3.75 15 3.75V3.75C21.2138 3.75 26.25 8.78625 26.25 15V15C26.25 21.2138 21.2138 26.25 15 26.25Z" stroke="#323232" stroke-width="1.5" stroke-linecap="round" stroke-linejoin="round"/>
    <path d="M15 16.5623V16.2498C15 15.2285 15.6312 14.6748 16.2637 14.2498C16.8812 13.8335 17.5 13.291 17.5 12.291C17.5 10.9098 16.3813 9.79102 15 9.79102C13.6187 9.79102 12.5 10.9098 12.5 12.291" stroke="#323232" stroke-width="1.5" stroke-linecap="round" stroke-linejoin="round"/>
    <path d="M14.9988 20C14.8263 20 14.6863 20.14 14.6875 20.3125C14.6875 20.485 14.8275 20.625 15 20.625C15.1725 20.625 15.3125 20.485 15.3125 20.3125C15.3125 20.14 15.1725 20 14.9988 20" stroke="#323232" stroke-width="1.5" stroke-linecap="round" stroke-linejoin="round"/>
    </svg>
    