<svg width="24" height="24" viewBox="0 0 24 24" fill="none" xmlns="http://www.w3.org/2000/svg">
    <path d="M21.0041 10.9996V16.0017C21.0041 17.6592 19.6604 19.0029 18.0028 19.0029H5.99783C4.34029 19.0029 2.99658 17.6592 2.99658 16.0017V7.99832C2.99658 6.34078 4.34029 4.99707 5.99783 4.99707H15.0016"
    stroke="#2BABE2" stroke-linecap="round" stroke-linejoin="round" />
    <path fill-rule="evenodd" clip-rule="evenodd"
    d="M20.085 3.99659C19.3401 3.99484 18.651 4.3912 18.2779 5.03599C17.9049 5.68078 17.9047 6.47574 18.2776 7.12066C18.6504 7.76557 19.3394 8.16216 20.0843 8.16066H20.085C20.8299 8.16241 21.519 7.76605 21.892 7.12126C22.2651 6.47647 22.2652 5.68151 21.8924 5.03659C21.5196 4.39168 20.8306 3.99509 20.0857 3.99659H20.085Z"
    stroke="#2BABE2" stroke-linecap="round" stroke-linejoin="round" />
    <path d="M17.0021 9.77828L13.5216 12.489C12.5369 13.256 11.152 13.2377 10.1879 12.4449L5.99756 8.99902"
    stroke="#2BABE2" stroke-linecap="round" stroke-linejoin="round" />
</svg>